PathFileType	4	(X/Y/Z)	C:/Users/beibeiliu/ov580/test_trc/User3\sequence.40_training_dense_right.trc
DataRate	CameraRate	NumFrames	NumMarkers	Units	OrigDataRate	OrigDataStartFrame	OrigNumFrames
120	120	24	19	mm	120	1	287
Frame#	Time	ThumbCMC			ThumbMCP			ThumbIP			ThumbTip			IndexMCP			IndexPIP			IndexTip			MiddleMCP			MiddlePIP			MiddleTip			RingMCP			RingPIP			RingTip			PinkyMCP			PinkyPIP			PinkyTip			BackHand1			BackHand2			BackHand3	
		X0	Y0	Z0	X1	Y1	Z1	X2	Y2	Z2	X3	Y3	Z3	X4	Y4	Z4	X5	Y5	Z5	X6	Y6	Z6	X7	Y7	Z7	X8	Y8	Z8	X9	Y9	Z9	X10	Y10	Z10	X11	Y11	Z11	X12	Y12	Z12	X13	Y13	Z13	X14	Y14	Z14	X15	Y15	Z15	X16	Y16	Z16	X17	Y17	Z17	X18	Y18	Z18	
0	0	95.8022	-39.7706	52.51	70.9048	-51.5478	31.6133	57.8683	-64.7074	7.13183	52.0003	-77.2325	-11.1347	106.569	-40.0825	-25.9241	98.7757	-51.6141	-54.3844	90.0316	-62.9649	-72.8688	134.633	-43.4311	-31.7055	128.75	-52.4771	-59.3411	127.389	-71.4678	-86.937	150.23	-50.5892	-23.5787	151.782	-58.4677	-49.9152	153.811	-74.5089	-74.2422	167.744	-61.5223	-6.91764	176.222	-71.1282	-27.3776	182.362	-84.3133	-44.6916	152.817	-32.7837	24.2441	155.356	-23.7397	54.0986	122.634	-20.5052	39.0889	
1	0.00833333	90.1045	-37.2756	44.8461	71.0672	-47.875	29.9313	54.9005	-59.9923	3.08275	43.5199	-71.883	-11.3108	102.37	-40.2047	-28.6651	91.9652	-49.1893	-56.9576	87.4923	-65.7128	-77.7873	126.612	-43.3854	-33.8718	122.545	-55.2945	-65.6418	120.312	-73.5842	-91.1243	143.116	-51.5644	-28.9555	150.15	-61.166	-49.5235	145.513	-76.4055	-76.2594	161.676	-63.733	-9.32883	169.68	-74.8512	-31.4636	169.519	-89.2005	-50.5096	149.063	-33.6062	21.1375	152.409	-24.9027	50.409	119.342	-18.9395	32.378	
2	0.0166667	86.7688	-30.7887	46.8922	67.8364	-41.8901	24.5278	49.0117	-51.5545	1.20885	40.9651	-62.98	-15.4169	99.3931	-38.24	-32.2595	87.7011	-45.2217	-56.2628	83.1831	-61.3672	-77.8337	122.553	-44.5129	-41.9456	117.059	-55.4839	-67.8699	113.173	-76.0058	-93.9066	141.273	-53.8132	-30.4162	140.492	-62.4757	-52.259	138.578	-80.1782	-76.5601	156.607	-64.9632	-13.761	162.051	-78.3851	-31.3635	161.46	-91.9999	-49.2501	147.352	-34.0901	16.6709	153.545	-25.533	44.0603	120.166	-16.5589	30.1287	
3	0.025	84.7753	-22.8594	40.4181	63.731	-30.8595	24.0838	45.7664	-40.3276	-2.37764	32.4645	-50.5226	-17.5834	95.1963	-33.2549	-33.6494	82.9589	-43.8334	-62.2835	77.5581	-59.1954	-80.8614	122.224	-46.169	-42.6413	114.113	-59.0088	-70.5118	105.868	-78.0451	-92.6715	134.55	-55.2735	-34.8507	133.773	-68.426	-58.0177	126.409	-85.2846	-77.574	149.029	-68.5189	-14.7914	151.086	-82.0242	-31.7651	147.383	-101.662	-52.5596	143.599	-32.5475	12.6754	150.806	-27.1464	43.4757	116.869	-13.6445	22.8421	
4	0.0333333	86.6188	-11.2109	34.9258	65.5597	-18.2465	19.6613	44.6526	-24.0351	-3.5345	29.6554	-33.0927	-19.6165	95.0963	-30.5483	-40.4467	81.2189	-36.2745	-62.4558	71.4967	-53.2532	-81.0024	114.484	-43.5309	-42.1706	103.622	-59.3802	-71.2555	91.1382	-75.3167	-91.6063	126.712	-58.5428	-31.5084	119.854	-72.3222	-58.852	110.902	-90.2634	-78.093	139.367	-74.7678	-13.1611	135.202	-90.6841	-35.9347	126.019	-108.582	-50.1127	142.807	-35.8686	12.8669	154.264	-30.6698	39.4531	125.295	-13.1004	22.4967	
5	0.0416667	92.662	-2.48106	29.9034	71.0606	-6.34487	15.6335	49.6631	-7.64534	-2.24498	32.3547	-12.5505	-18.5484	93.2137	-24.7915	-41.7145	80.5087	-36.0316	-65.5231	60.59	-43.0099	-84.1199	110.43	-47.2337	-43.8644	96.5667	-59.9498	-68.5903	75.9573	-72.2432	-87.9555	116.627	-61.5491	-35.9034	109.901	-76.2744	-55.707	92.6784	-88.1407	-72.5298	125.766	-81.6137	-16.1673	117.409	-92.4512	-31.6667	102.906	-112.844	-47.8985	141.556	-45.6535	8.51743	150.201	-36.4478	34.1032	128.797	-14.51	14.7462	
6	0.05	101.176	1.8085	27.0685	77.1627	8.31562	12.39	53.6945	10.4766	-9.04619	35.8761	8.01503	-21.3387	94.5367	-23.7593	-44.4155	76.1666	-27.5091	-67.8703	59.2122	-39.9652	-82.4838	103.47	-45.6264	-46.912	85.1782	-55.9895	-68.712	60.1069	-67.1601	-86.3953	109.303	-66.6316	-35.8587	96.1952	-77.9138	-54.9578	76.1928	-88.1908	-69.8692	111.109	-80.3325	-13.593	97.5226	-97.6035	-29.7589	77.374	-109.388	-43.0822	137.395	-46.9675	8.41647	147.337	-40.6562	33.8196	131.448	-15.5043	11.9067	
7	0.0583333	109.373	7.46373	26.952	85.5055	15.1256	7.94178	63.695	20.5331	-12.3107	44.8895	21.2375	-27.9574	95.9502	-19.8556	-48.106	74.6648	-26.3591	-69.5762	53.4419	-30.403	-84.9062	97.8983	-47.1032	-48.9948	76.8972	-52.1621	-70.1607	46.5272	-60.9495	-86.2779	98.8262	-66.7626	-36.3337	82.5538	-76.2293	-54.8747	60.9497	-78.2063	-69.066	99.687	-78.8942	-12.3852	84.0101	-90.2513	-27.4376	60.2582	-101.425	-39.1859	131.865	-51.4286	2.52525	145.22	-46.4382	33.7234	135.851	-16.0364	11.0416	
8	0.0666667	114.461	5.32932	19.6948	94.2452	20.3149	4.44491	74.8264	26.6458	-14.9919	55.9284	31.3794	-30.3377	96.1241	-20.2849	-50.1989	76.8455	-19.925	-71.2729	56.2542	-22.2092	-82.8638	94.7135	-45.6451	-49.0214	69.3195	-47.4996	-71.3594	44.5728	-46.1082	-83.2352	93.6094	-60.3691	-34.5691	74.5169	-67.2535	-53.4887	46.5468	-69.9808	-68.4493	88.3916	-76.8472	-13.6476	68.9628	-82.5528	-28.7948	45.7087	-89.1205	-34.148	126.534	-58.0124	4.23574	138.317	-54.4522	31.0721	136.734	-23.256	10.8911	
9	0.075	124.766	7.17904	21.4251	104.24	22.5134	0.999892	87.531	32.1925	-19.4334	69.4792	37.4573	-37.1541	98.0361	-21.7794	-50.3655	81.609	-14.5901	-69.6898	55.1365	-13.0214	-83.7371	91.2536	-41.2494	-52.2501	66.027	-40.3834	-70.8786	40.8548	-33.4449	-83.3241	86.624	-58.3572	-33.7463	66.7034	-59.7179	-52.7361	39.6599	-55.944	-65.6114	77.8876	-73.5838	-11.8148	58.1971	-75.0295	-26.891	35.0697	-71.3041	-36.3101	120.689	-54.619	6.74562	131.132	-58.0243	31.1728	138.543	-30.6562	11.0967	
10	0.0833333	129.963	-0.0706033	17.6678	116.82	21.5944	-4.96151	101.047	34.5076	-25.7486	83.3164	38.1587	-42.5486	103.138	-21.7097	-48.7404	81.7276	-13.408	-72.8	60.3956	-10.9813	-82.9316	87.0964	-42.4815	-49.3177	65.3255	-38.6758	-67.227	37.8355	-24.19	-79.7461	77.2492	-56.5302	-34.8056	58.3194	-53.72	-51.0242	33.2833	-42.9222	-62.1348	68.0543	-67.6786	-9.45602	49.1339	-65.1658	-24.8095	23.9388	-54.1905	-34.1955	115.824	-57.8876	9.59771	127.959	-61.2395	35.5671	136.193	-35.2222	12.3619	
11	0.0916667	137.266	-3.67839	21.1392	125.62	12.2391	-3.42104	112.538	27.9378	-31.6057	97.7978	36.4953	-48.8741	104.814	-23.8078	-50.8411	85.6461	-16.6332	-72.2749	64.8708	-5.20848	-85.6448	89.0923	-40.8594	-46.6712	64.3143	-32.6245	-67.705	41.5321	-12.1627	-80.1696	73.7279	-52.8359	-32.9161	53.3687	-46.5944	-48.0343	30.8284	-27.5793	-59.6371	63.2548	-59.5421	-12.8271	40.3679	-55.1075	-24.0854	20.5302	-40.1975	-29.4846	107.156	-62.2535	7.86194	120.616	-63.2253	36.863	135.709	-39.0532	8.90511	
12	0.1	143.207	-8.60199	20.1607	134.252	6.81624	-4.61244	126.037	21.1523	-28.4671	113.693	29.8529	-48.2557	108.646	-28.2276	-52.742	91.6621	-19.1429	-72.5015	78.3219	-5.07699	-86.5203	87.5646	-40.5439	-50.1015	63.8086	-27.8445	-66.6587	45.3038	-5.06308	-76.5056	72.4607	-48.9967	-33.2661	49.8419	-38.9554	-48.1245	35.2605	-16.7794	-58.9665	59.118	-56.3038	-10.4272	41.3483	-46.4695	-23.8421	24.9883	-26.9552	-31.0999	106.503	-64.1556	10.2094	115.371	-64.3237	38.886	137.437	-46.64	14.22	
13	0.108333	141.402	-15.6539	19.7004	139.626	2.53714	-5.48065	133.172	13.5659	-30.8843	124.063	24.6611	-49.1315	110.515	-33.1811	-48.2563	96.6842	-22.9642	-73.2664	81.0343	-4.52479	-91.0621	87.3869	-44.3055	-44.617	69.9127	-28.5728	-65.91	49.2117	0.573353	-77.4873	70.0198	-48.3807	-33.2249	57.7769	-34.4291	-50.2829	39.6913	-14.527	-57.476	58.8689	-53.5833	-7.65199	39.9203	-39.9831	-24.6312	30.2889	-21.8703	-32.4894	104.979	-64.0164	14.1752	111.675	-65.9906	39.1746	137.006	-50.2623	15.7567	
14	0.116667	144.302	-17.2902	19.4448	146.244	0.921874	-4.76578	139.06	10.4802	-31.7931	127.926	19.6409	-55.768	114.589	-35.5198	-53.149	99.7909	-24.2485	-75.8805	89.2626	-7.454	-91.666	92.4995	-42.5828	-48.5483	73.7867	-29.5212	-67.024	56.516	0.85935	-79.7265	72.1224	-49.2682	-33.114	56.1683	-33.5281	-53.2533	43.0565	-8.77604	-61.7042	60.6566	-51.9438	-10.4065	40.7304	-41.6899	-24.2662	30.951	-15.6369	-34.9932	100.778	-66.2516	13.7527	112.713	-66.7142	40.529	133.863	-51.4906	13.5814	
15	0.125	146.832	-18.6729	18.6861	145.833	-2.11258	-4.95232	142.557	9.75822	-31.7924	131.692	17.9339	-52.1048	117.655	-36.9066	-52.6926	105.184	-24.1087	-77.6369	93.5247	-7.82425	-93.4157	92.262	-43.2315	-50.6548	78.0195	-25.3471	-71.9146	62.6077	-0.00131672	-82.4131	77.4052	-48.3147	-36.987	57.9613	-38.2692	-51.588	43.938	-11.3947	-62.7088	60.5452	-52.5847	-12.3611	42.894	-40.0758	-26.5582	34.0206	-15.4412	-35.9021	100.513	-68.6866	14.6123	108.275	-69.826	39.5669	134.68	-52.8964	17.3771	
16	0.133333	144.131	-21.1229	20.5703	147.658	-3.07935	-6.5481	140.075	6.40259	-34.7086	131.184	16.8454	-54.4811	117.744	-38.3043	-53.6136	108.252	-25.9438	-77.5104	90.529	-9.69367	-93.8556	95.4468	-46.1288	-48.9805	80.1865	-28.7925	-70.8111	60.4863	-3.59029	-80.5734	79.5215	-50.3925	-33.4112	60.2915	-35.3698	-54.9	47.0146	-10.1522	-64.9137	61.5918	-53.6533	-11.0471	44.9068	-37.0427	-29.8894	36.7275	-12.6756	-36.8911	102.43	-69.1627	14.1851	109.309	-70.7694	42.6838	133.913	-54.6121	18.5468	
17	0.141667	147.64	-21.5024	17.9452	144.869	-5.30782	-8.43988	144.213	8.55771	-32.6922	134.658	16.7922	-52.3483	116.64	-40.6906	-53.4093	106.645	-29.0557	-77.3619	93.8144	-12.454	-92.7967	92.6704	-46.2719	-50.8088	78.0715	-28.0558	-72.3833	65.1559	-0.628959	-84.1819	79.973	-50.2901	-37.5814	58.8629	-34.6309	-55.5313	50.8946	-11.1281	-64.5987	62.359	-52.5722	-16.6341	45.2095	-36.512	-30.7047	34.3163	-14.0717	-35.4335	101.731	-70.3881	13.5921	110.427	-70.955	43.8106	137.22	-54.5712	17.095	
18	0.15	151.496	-20.377	21.3352	147.45	-4.8743	-8.41768	145.853	9.62819	-32.1936	136.192	18.3128	-54.548	122.115	-40.232	-51.8933	110.577	-31.2083	-75.8554	93.3294	-13.6819	-94.9464	96.7097	-46.2363	-52.9933	81.0597	-31.7375	-70.0697	62.8344	-1.53035	-81.9961	78.106	-52.5739	-33.1396	63.8409	-37.9257	-54.5407	51.8228	-9.23333	-63.5884	64.4843	-53.1582	-13.4264	47.0678	-36.1629	-31.8829	38.3881	-14.6946	-34.4155	105.575	-68.4942	10.6731	112.14	-67.3793	40.8162	135.765	-56.9493	17.0634	
19	0.158333	150.72	-21.0577	18.451	145.663	-6.29202	-8.31735	143.035	7.47332	-30.7204	133.948	18.0031	-53.6286	122.973	-40.928	-49.1543	112.531	-31.547	-76.9355	101.047	-14.794	-94.5155	93.5383	-48.0394	-50.7996	81.0567	-29.6959	-71.3817	65.8772	0.746165	-82.3057	78.106	-50.8892	-37.5744	65.7524	-34.6331	-56.4433	52.7552	-5.30726	-62.222	66.7801	-52.2612	-13.5595	48.2458	-38.4585	-29.9213	42.467	-11.2433	-39.3144	105.849	-68.8428	8.81971	110.685	-70.0559	38.7431	136.298	-57.4846	19.236	
20	0.166667	146.762	-21.7117	17.7983	146.066	-4.69459	-5.03113	143.125	10.8932	-33.5554	127.066	14.5919	-52.449	120.241	-43.9121	-50.0123	114.998	-32.3638	-77.8514	101.296	-14.0971	-94.1378	100.426	-48.9091	-49.2779	84.324	-32.5131	-71.3783	69.8405	3.64465	-81.9159	80.8882	-51.1861	-38.0574	66.1502	-32.9479	-56.7138	52.2506	-8.62465	-59.0526	62.957	-54.1956	-14.5106	48.2544	-40.0359	-28.9092	40.4857	-13.0279	-36.1771	103.293	-71.5024	15.086	110.684	-71.7704	42.3121	139.056	-55.4892	13.3181	
21	0.175	148.471	-20.7133	17.2234	141.032	-5.32009	-8.93264	137.811	9.17073	-36.0262	123.36	14.5679	-52.474	123.195	-43.6134	-53.749	117.241	-32.8036	-77.2117	99.5667	-6.57038	-91.6347	100.845	-48.9118	-51.6922	88.5783	-27.2185	-74.1402	71.9804	3.71011	-78.2925	81.0072	-53.3713	-39.0369	68.7054	-37.3405	-55.0383	55.4376	-8.78724	-58.8596	65.6875	-55.3697	-19.0877	53.7342	-39.9391	-33.9607	46.0855	-14.8036	-40.4398	110.033	-70.1386	13.6882	112.878	-69.9545	41.8507	137.964	-58.0278	18.3158	
22	0.183333	147.066	-19.971	18.4371	139.178	-4.88739	-5.85215	130.678	4.09922	-37.8141	114.439	8.0113	-55.066	125.835	-41.9766	-53.6922	113.259	-25.1861	-76.1069	97.7926	-0.766145	-81.0034	102.951	-50.2957	-48.1057	88.7555	-29.5211	-71.144	73.3878	6.35057	-73.3015	85.7399	-55.9941	-35.7435	72.4278	-38.5704	-57.6445	57.6204	-9.61306	-58.5534	73.1997	-56.2381	-21.849	56.3237	-43.4826	-35.4657	51.7815	-17.0657	-45.6034	110.996	-71.3265	9.26404	116.688	-68.3892	43.3373	139.557	-56.2888	15.5777	
23	0.191667	148.736	-16.1859	20.1886	137.654	-2.91473	-7.63006	127.075	4.18673	-33.0763	111.44	9.25984	-55.4891	125.571	-40.1349	-49.3662	113.679	-18.6081	-74.6488	96.1437	4.58616	-72.5715	109.146	-48.5731	-49.6812	91.0527	-28.7231	-71.7546	75.7599	3.06127	-73.6014	89.8928	-55.4759	-38.8743	71.694	-38.9455	-59.8459	62.7454	-7.60527	-61.0489	75.3907	-59.0346	-22.4159	63.6998	-48.6896	-38.4156	51.9195	-20.3707	-44.647	111.06	-70.1384	8.91383	118.351	-70.5992	42.2986	143.278	-55.0259	19.2181	
